#!OML:ASF X:\für Bonn\!DataBase\2005_08_10_Bjorn_Final\c3d\bjorn.ASF
:FULLY-SPECIFIED
:DEGREES
31
root 0.31501 19.18 2.78064 -177.467 -13.7438 -181.124
lowerback -4.87669 1.4266 -2.78907
upperback 6.40639 1.98158 -0.657781
thorax 9.44653 0.686913 1.10083
lowerneck -7.1032 -0.946735 -3.89763
upperneck 20.4261 -0.903422 -4.41315
head 7.44777 -1.51441 -0.916368
rclavicle -5.46658e-014 1.03368e-014
rhumerus -41.0606 -24.6579 -74.6309
rradius 23.6097
rwrist 19.4846
rhand -15.637 14.6988
rfingers 7.12502
rthumb 10.5503 -15.0164
lclavicle -5.46658e-014 1.03368e-014
lhumerus -31.504 -39.3635 77.9395
lradius 50.0829
lwrist -3.58533
lhand -22.8923 -17.8213
lfingers 7.12502
lthumb 3.54714 12.1289
rfemur -12.9641 -9.26931 16.4292
rtibia 36.8697
rfoot -22.7065 -10.7579
rtoes -29.4154
lfemur -15.8087 6.39089 -20.9897
ltibia 31.3435
lfoot -10.1193 -15.1423
ltoes 10.1769
32
root 0.300444 19.1895 2.79448 -177.628 -13.8725 -181.218
lowerback -4.52096 1.54858 -3.02545
upperback 6.54963 2.14921 -0.874914
thorax 9.38714 0.750054 1.0134
lowerneck -7.2429 -1.16431 -3.99519
upperneck 20.2951 -1.23103 -3.95248
head 7.43156 -1.61593 -0.774695
rclavicle -2.83765e-014 -1.90833e-014
rhumerus -41.0578 -24.3989 -74.983
rradius 23.6307
rwrist 19.7671
rhand -15.8519 15.1488
rfingers 7.12502
rthumb 10.343 -14.5769
lclavicle -2.83765e-014 -1.90833e-014
lhumerus -30.8047 -39.3437 77.2167
lradius 51.2658
lwrist -3.57947
lhand -22.7929 -17.7535
lfingers 7.12502
lthumb 3.64311 12.1951
rfemur -13.5353 -7.83566 16.2011
rtibia 38.2552
rfoot -22.5308 -11.195
rtoes -29.7611
lfemur -15.4721 6.37042 -21.1257
ltibia 30.9921
lfoot -9.83521 -15.2436
ltoes 10.4679
33
root 0.287681 19.1977 2.80814 -177.81 -14.0353 -181.312
lowerback -4.14187 1.67447 -3.24558
upperback 6.70025 2.31615 -1.11924
thorax 9.32398 0.813578 0.885847
lowerneck -7.37474 -1.38198 -4.05462
upperneck 20.1671 -1.57148 -3.45128
head 7.4165 -1.71713 -0.627691
rclavicle 4.39314e-014 -1.98785e-015
rhumerus -41.0717 -24.1354 -75.3856
rradius 23.6421
rwrist 19.9866
rhand -16.1656 15.622
rfingers 7.12502
rthumb 10.0404 -14.1185
lclavicle 4.39314e-014 -1.98785e-015
lhumerus -29.9303 -39.3359 76.4315
lradius 52.4389
lwrist -3.44463
lhand -22.5601 -17.6971
lfingers 7.12502
lthumb 3.86789 12.2475
rfemur -14.1794 -6.37446 15.9826
rtibia 39.8178
rfoot -22.2489 -11.5833
rtoes -29.8194
lfemur -15.1163 6.33512 -21.2454
ltibia 30.6494
lfoot -9.50022 -15.409
ltoes 10.9198
34
root 0.276788 19.2026 2.82192 -178.004 -14.2233 -181.385
lowerback -3.74427 1.80155 -3.47782
upperback 6.84259 2.47962 -1.34474
thorax 9.23998 0.873822 0.78257
lowerneck -7.46268 -1.61114 -4.1115
upperneck 20.0553 -1.93268 -2.97069
head 7.40088 -1.83275 -0.490113
rclavicle -5.63555e-014 3.10104e-014
rhumerus -41.1433 -23.7995 -75.7885
rradius 23.6938
rwrist 20.0383
rhand -16.4908 15.9897
rfingers 7.12502
rthumb 9.72664 -13.7657
lclavicle -5.63555e-014 3.10104e-014
lhumerus -28.9832 -39.2023 75.6629
lradius 53.6552
lwrist -3.27196
lhand -22.1694 -17.6744
lfingers 7.12502
lthumb 4.24515 12.2631
rfemur -14.9322 -4.99286 15.7788
rtibia 41.5709
rfoot -21.8783 -11.7591
rtoes -29.4151
lfemur -14.7798 6.39514 -21.3364
ltibia 30.3445
lfoot -9.15527 -15.6526
ltoes 11.4058
35
root 0.268479 19.2058 2.83541 -178.218 -14.4713 -181.461
lowerback -3.35248 1.9169 -3.72769
upperback 7.01854 2.62199 -1.56009
thorax 9.19644 0.918913 0.696234
lowerneck -7.54764 -1.85264 -4.20679
upperneck 19.8883 -2.31028 -2.44336
head 7.37004 -1.95231 -0.331915
rclavicle 3.00165e-014 -1.15295e-014
rhumerus -41.1763 -23.4218 -76.2109
rradius 23.7572
rwrist 20.0164
rhand -16.7843 16.2687
rfingers 7.12502
rthumb 9.44348 -13.4998
lclavicle 3.00165e-014 -1.15295e-014
lhumerus -27.9227 -38.9414 74.878
lradius 54.9836
lwrist -3.10994
lhand -21.709 -17.6782
lfingers 7.12502
lthumb 4.6898 12.2499
rfemur -15.7506 -3.69738 15.58
rtibia 43.4898
rfoot -21.5067 -11.7621
rtoes -28.744
lfemur -14.4373 6.44821 -21.4152
ltibia 30.0574
lfoot -8.78706 -15.9667
ltoes 11.8302
36
root 0.262827 19.2087 2.84792 -178.479 -14.776 -181.536
lowerback -2.91335 2.02935 -3.99059
upperback 7.21396 2.75257 -1.80145
thorax 9.14778 0.955572 0.585257
lowerneck -7.60355 -2.09619 -4.17908
upperneck 19.704 -2.70544 -1.94179
head 7.32842 -2.07393 -0.203856
rclavicle -2.16675e-014 -1.66979e-014
rhumerus -41.2846 -23.1536 -76.6414
rradius 23.8626
rwrist 20.0546
rhand -17.1068 16.4238
rfingers 7.12502
rthumb 9.13225 -13.3585
lclavicle -2.16675e-014 -1.66979e-014
lhumerus -26.8039 -38.61 74.0432
lradius 56.4258
lwrist -3.01462
lhand -21.3003 -17.7486
lfingers 7.12502
lthumb 5.08435 12.1704
rfemur -16.6135 -2.5111 15.3957
rtibia 45.5728
rfoot -21.1889 -11.5981
rtoes -28.3999
lfemur -14.036 6.52633 -21.4751
ltibia 29.7578
lfoot -8.40581 -16.3406
ltoes 12.3512
37
root 0.259402 19.2138 2.85915 -178.766 -15.1271 -181.572
lowerback -2.45867 2.12322 -4.25848
upperback 7.41293 2.85046 -2.00501
thorax 9.09309 0.973754 0.511881
lowerneck -7.61377 -2.34036 -4.19534
upperneck 19.5048 -3.10251 -1.4293
head 7.27707 -2.20086 -0.064927
rclavicle -9.34288e-015 -4.05521e-014
rhumerus -41.4128 -22.8197 -77.0344
rradius 23.9583
rwrist 20.0278
rhand -17.3888 16.545
rfingers 7.12502
rthumb 8.86017 -13.249
lclavicle -9.34288e-015 -4.05521e-014
lhumerus -25.6624 -38.162 73.2847
lradius 57.9187
lwrist -3.06322
lhand -21.0008 -17.9487
lfingers 7.12502
lthumb 5.37358 11.9632
rfemur -17.5391 -1.40907 15.2709
rtibia 47.799
rfoot -20.8679 -11.3094
rtoes -28.2118
lfemur -13.5879 6.59096 -21.4801
ltibia 29.4189
lfoot -7.97854 -16.7517
ltoes 12.9037
38
root 0.259145 19.2231 2.86904 -179.094 -15.563 -181.57
lowerback -1.97208 2.19025 -4.56564
upperback 7.63846 2.90402 -2.18512
thorax 9.0478 0.963675 0.478567
lowerneck -7.64929 -2.5691 -4.07926
upperneck 19.2877 -3.4801 -0.990747
head 7.22239 -2.31605 0.0292909
rclavicle 5.14852e-014 -5.32743e-014
rhumerus -41.576 -22.4555 -77.4636
rradius 24.1439
rwrist 20.0447
rhand -17.5976 16.4591
rfingers 7.12502
rthumb 8.65869 -13.3434
lclavicle 5.14852e-014 -5.32743e-014
lhumerus -24.4626 -37.6551 72.5529
lradius 59.5013
lwrist -3.13901
lhand -20.9297 -18.2097
lfingers 7.12502
lthumb 5.44226 11.7004
rfemur -18.5072 -0.415642 15.2148
rtibia 50.1659
rfoot -20.4901 -10.9757
rtoes -28.2114
lfemur -13.0796 6.6809 -21.4294
ltibia 29.0234
lfoot -7.52477 -17.2256
ltoes 13.2309
39
root 0.261241 19.2341 2.87835 -179.444 -16.0748 -181.548
lowerback -1.46628 2.22368 -4.93219
upperback 7.8799 2.90602 -2.32407
thorax 9.00641 0.920518 0.51563
lowerneck -7.66508 -2.7884 -3.93578
upperneck 19.0297 -3.83997 -0.597877
head 7.15077 -2.42578 0.106225
rclavicle 1.68967e-014 2.38542e-014
rhumerus -41.7015 -22.1409 -77.8015
rradius 24.2206
rwrist 20.1592
rhand -17.7978 16.3821
rfingers 7.12502
rthumb 8.46545 -13.4282
lclavicle 1.68967e-014 2.38542e-014
lhumerus -23.2162 -37.0219 71.9128
lradius 61.0856
lwrist -3.39371
lhand -21.1243 -18.5988
lfingers 7.12502
lthumb 5.25436 11.316
rfemur -19.5347 0.430483 15.1878
rtibia 52.6662
rfoot -20.0957 -10.541
rtoes -28.3892
lfemur -12.5262 6.65942 -21.3485
ltibia 28.5675
lfoot -7.05439 -17.655
ltoes 13.6347
40
root 0.26675 19.2466 2.8875 -179.793 -16.6738 -181.489
lowerback -0.9467 2.24293 -5.26004
upperback 8.11722 2.88059 -2.48069
thorax 8.95692 0.866566 0.509461
lowerneck -7.63951 -3.00112 -3.71537
upperneck 18.77 -4.2103 -0.178006
head 7.0714 -2.53563 0.178792
rclavicle 8.74653e-015 -2.38542e-014
rhumerus -41.8727 -21.8166 -78.2021
rradius 24.3113
rwrist 20.2428
rhand -17.9457 16.1851
rfingers 7.12502
rthumb 8.32274 -13.631
lclavicle 8.74653e-015 -2.38542e-014
lhumerus -21.917 -36.493 71.2633
lradius 62.7405
lwrist -3.54102
lhand -21.5297 -19.0692
lfingers 7.12502
lthumb 4.86288 10.8549
rfemur -20.6538 1.16461 15.217
rtibia 55.2916
rfoot -19.7603 -10.07
rtoes -28.5622
lfemur -11.966 6.56886 -21.225
ltibia 28.0648
lfoot -6.52809 -18.0746
ltoes 14.0246
41
root 0.275974 19.2607 2.89638 -180.138 -17.3781 -181.41
lowerback -0.427922 2.21309 -5.61006
upperback 8.37528 2.78299 -2.62347
thorax 8.93378 0.772196 0.524506
lowerneck -7.60963 -3.1971 -3.5253
upperneck 18.4657 -4.55068 0.248293
head 6.97849 -2.63389 0.261406
rclavicle -3.97569e-016 -1.27222e-014
rhumerus -41.9783 -21.4572 -78.6087
rradius 24.3382
rwrist 20.3815
rhand -17.9617 15.9926
rfingers 7.12502
rthumb 8.30733 -13.824
lclavicle -3.97569e-016 -1.27222e-014
lhumerus -20.5137 -35.8891 70.6293
lradius 64.4016
lwrist -3.66104
lhand -22.1259 -19.5784
lfingers 7.12502
lthumb 4.2872 10.3582
rfemur -21.8561 1.80719 15.2693
rtibia 58.0163
rfoot -19.5225 -9.57215
rtoes -28.6324
lfemur -11.4175 6.56877 -21.0725
ltibia 27.5304
lfoot -5.91106 -18.6645
ltoes 14.35
42
root 0.288948 19.2772 2.90531 -180.497 -18.1674 -181.254
lowerback 0.106531 2.16902 -5.91714
upperback 8.64438 2.65664 -2.74275
thorax 8.917 0.664657 0.53887
lowerneck -7.56871 -3.40611 -3.33647
upperneck 18.1519 -4.91232 0.697207
head 6.88307 -2.74309 0.349728
rclavicle 2.3059e-014 -7.63333e-014
rhumerus -42.0829 -21.0195 -79.0711
rradius 24.3952
rwrist 20.4509
rhand -17.9271 15.7553
rfingers 7.12502
rthumb 8.34064 -14.06
lclavicle 2.3059e-014 -7.63333e-014
lhumerus -18.9969 -35.3227 70.0214
lradius 66.0774
lwrist -3.70353
lhand -22.8313 -20.0461
lfingers 7.12502
lthumb 3.60604 9.90316
rfemur -23.143 2.36385 15.406
rtibia 60.8225
rfoot -19.3684 -9.09575
rtoes -28.808
lfemur -10.881 6.56368 -20.8348
ltibia 26.9742
lfoot -5.33367 -19.311
ltoes 14.3597
43
root 0.306757 19.2953 2.91591 -180.864 -19.044 -181.056
lowerback 0.707745 2.10037 -6.23079
upperback 8.89499 2.48611 -2.85415
thorax 8.84381 0.535965 0.562066
lowerneck -7.49143 -3.60076 -3.12901
upperneck 17.8348 -5.26381 1.17199
head 6.78166 -2.84803 0.444598
rclavicle 3.93594e-014 7.15625e-014
rhumerus -42.2192 -20.5844 -79.5351
rradius 24.4198
rwrist 20.6067
rhand -17.8037 15.5298
rfingers 7.12502
rthumb 8.45974 -14.2807
lclavicle 3.93594e-014 7.15625e-014
lhumerus -17.3719 -34.7625 69.4209
lradius 67.7171
lwrist -3.61586
lhand -23.5303 -20.5633
lfingers 7.12502
lthumb 2.931 9.39632
rfemur -24.5065 2.81581 15.5824
rtibia 63.6769
rfoot -19.3128 -8.54285
rtoes -28.7964
lfemur -10.3715 6.52694 -20.5477
ltibia 26.4041
lfoot -4.64716 -19.9727
ltoes 14.4724
44
root 0.327965 19.3141 2.92823 -181.175 -19.9851 -180.859
lowerback 1.28237 2.0165 -6.56197
upperback 9.16309 2.29225 -2.96809
thorax 8.80921 0.391534 0.592986
lowerneck -7.41661 -3.79657 -2.90981
upperneck 17.4339 -5.60949 1.65423
head 6.65519 -2.94959 0.54131
rclavicle 7.39479e-014 4.29375e-014
rhumerus -42.2792 -20.138 -80.0363
rradius 24.4019
rwrist 20.7945
rhand -17.687 15.3617
rfingers 7.12502
rthumb 8.57243 -14.4443
lclavicle 7.39479e-014 4.29375e-014
lhumerus -15.5107 -34.2067 68.7815
lradius 69.2921
lwrist -3.40754
lhand -24.2336 -21.003
lfingers 7.12502
lthumb 2.25176 8.96488
rfemur -26.0118 3.20629 15.7259
rtibia 66.568
rfoot -19.2687 -7.8556
rtoes -28.0409
lfemur -9.94221 6.48277 -20.2667
ltibia 25.8297
lfoot -3.94591 -20.6566
ltoes 14.4897
